<svg version="1.1" id="Layer_1" xmlns="http://www.w3.org/2000/svg" xmlns:xlink="http://www.w3.org/1999/xlink" x="0px" y="0px"
	 width="100%" viewBox="0 0 512 512" enable-background="new 0 0 512 512" xml:space="preserve">
<path fill="#3C4836" opacity="1.000000" stroke="none" 
	d="
M1.000006,476.000000 
	C1.000000,330.309265 1.000000,184.618515 1.360056,38.435013 
	C2.296979,36.990246 3.045030,36.101700 3.425027,35.076706 
	C9.097344,19.776314 19.517145,9.252002 34.820362,3.516123 
	C36.025322,3.064485 36.946785,1.856483 38.000000,1.000000 
	C183.690750,1.000000 329.381500,1.000000 475.566223,1.359835 
	C477.012115,2.296947 477.900391,3.045768 478.925415,3.425772 
	C494.226288,9.098134 504.747955,19.520630 510.484741,34.822605 
	C510.936188,36.026817 512.143799,36.947529 513.000000,38.000000 
	C513.000000,183.690750 513.000000,329.381500 512.640137,475.566223 
	C511.703064,477.012085 510.954224,477.900360 510.574219,478.925354 
	C504.901825,494.226227 494.479462,504.748047 479.177429,510.484711 
	C477.973206,510.936188 477.052460,512.143799 476.000000,513.000000 
	C330.309265,513.000000 184.618515,513.000000 38.435009,512.639893 
	C36.990234,511.702972 36.101677,510.954926 35.076683,510.574921 
	C19.776300,504.902618 9.252039,494.482819 3.516152,479.179657 
	C3.064508,477.974701 1.856495,477.053223 1.000006,476.000000 
M352.559967,162.095062 
	C353.697937,155.562637 354.835876,149.030197 356.072876,141.929382 
	C353.895508,141.929382 352.097809,141.929398 350.300110,141.929382 
	C335.806183,141.929367 321.312225,141.929306 306.818298,141.929367 
	C298.346680,141.929398 298.460724,141.949539 296.956116,150.500595 
	C286.460175,210.151428 275.908203,269.792389 265.386322,329.438629 
	C262.909058,343.481628 260.477997,357.532745 257.979950,371.842194 
	C277.490540,371.842194 296.560455,371.842194 315.794678,371.842194 
	C320.646942,344.102356 325.449310,316.647858 330.226593,289.336670 
	C351.240814,289.336670 371.641205,289.336670 392.529419,289.336670 
	C387.644775,317.028961 382.831635,344.315796 377.979309,371.824951 
	C397.542603,371.824951 416.612122,371.824951 435.808136,371.824951 
	C449.241699,295.175690 462.620880,218.836700 476.024719,142.357056 
	C475.055237,142.180893 474.415436,141.963867 473.775330,141.962997 
	C456.449341,141.939163 439.122894,141.994537 421.797668,141.875504 
	C418.937164,141.855835 418.267578,143.052002 417.821381,145.605713 
	C412.637939,175.271942 407.255219,204.903503 402.133179,234.580139 
	C401.523865,238.110443 400.321564,239.235123 396.737396,239.156662 
	C385.913788,238.919708 375.081635,239.071350 364.252838,239.071426 
	C355.950562,239.071487 347.648254,239.071442 338.915894,239.071442 
	C343.457581,213.335754 347.904968,188.134354 352.559967,162.095062 
M54.837421,326.290131 
	C49.447216,341.367279 44.057011,356.444397 38.439575,372.157135 
	C58.621098,372.157135 77.762703,372.226227 96.900871,372.001678 
	C98.176254,371.986725 100.078186,369.966003 100.577980,368.499603 
	C103.259468,360.632202 105.569336,352.638702 108.045296,344.700531 
	C110.404427,337.136932 112.809914,329.587738 115.127136,322.247253 
	C133.163452,322.247253 150.608017,322.247253 168.515808,322.247253 
	C167.919083,338.872437 167.331558,355.241730 166.736313,371.825592 
	C187.251190,371.825592 207.124252,371.825592 226.487183,371.825592 
	C226.487183,295.111603 226.487183,218.741837 226.487183,141.929565 
	C223.555222,141.929565 221.591522,141.929565 219.627838,141.929565 
	C188.972519,141.929550 158.314728,142.130814 127.664093,141.751923 
	C121.854805,141.680099 119.803757,143.696579 118.002556,148.791931 
	C97.158913,207.755829 76.072334,266.633850 54.837421,326.290131 
z"/>
<path fill="#000000" opacity="1.000000" stroke="none" 
	d="
M37.531342,1.000000 
	C36.946785,1.856483 36.025322,3.064485 34.820362,3.516123 
	C19.517145,9.252002 9.097344,19.776314 3.425027,35.076706 
	C3.045030,36.101700 2.296979,36.990246 1.360056,37.971130 
	C1.000000,25.740049 1.000000,13.480098 1.000000,1.000000 
	C13.020000,1.000000 25.041342,1.000000 37.531342,1.000000 
z"/>
<path fill="#000000" opacity="1.000000" stroke="none" 
	d="
M513.000000,37.531342 
	C512.143799,36.947529 510.936188,36.026817 510.484741,34.822605 
	C504.747955,19.520630 494.226288,9.098134 478.925415,3.425772 
	C477.900391,3.045768 477.012115,2.296947 476.030121,1.359835 
	C488.259949,1.000000 500.519897,1.000000 513.000000,1.000000 
	C513.000000,13.020000 513.000000,25.041342 513.000000,37.531342 
z"/>
<path fill="#000000" opacity="1.000000" stroke="none" 
	d="
M1.000006,476.468658 
	C1.856495,477.053223 3.064508,477.974701 3.516152,479.179657 
	C9.252039,494.482819 19.776300,504.902618 35.076683,510.574921 
	C36.101677,510.954926 36.990234,511.702972 37.971123,512.639893 
	C25.740049,513.000000 13.480098,513.000000 1.000000,513.000000 
	C1.000000,500.980011 1.000000,488.958649 1.000006,476.468658 
z"/>
<path fill="#000000" opacity="1.000000" stroke="none" 
	d="
M476.468658,513.000000 
	C477.052460,512.143799 477.973206,510.936188 479.177429,510.484711 
	C494.479462,504.748047 504.901825,494.226227 510.574219,478.925354 
	C510.954224,477.900360 511.703064,477.012085 512.640137,476.030090 
	C513.000000,488.259949 513.000000,500.519897 513.000000,513.000000 
	C500.980011,513.000000 488.958649,513.000000 476.468658,513.000000 
z"/>
<path fill="#DFC5A7" opacity="1.000000" stroke="none" 
	d="
M352.456146,162.514008 
	C347.904968,188.134354 343.457581,213.335754 338.915894,239.071442 
	C347.648254,239.071442 355.950562,239.071487 364.252838,239.071426 
	C375.081635,239.071350 385.913788,238.919708 396.737396,239.156662 
	C400.321564,239.235123 401.523865,238.110443 402.133179,234.580139 
	C407.255219,204.903503 412.637939,175.271942 417.821381,145.605713 
	C418.267578,143.052002 418.937164,141.855835 421.797668,141.875504 
	C439.122894,141.994537 456.449341,141.939163 473.775330,141.962997 
	C474.415436,141.963867 475.055237,142.180893 476.024719,142.357056 
	C462.620880,218.836700 449.241699,295.175690 435.808136,371.824951 
	C416.612122,371.824951 397.542603,371.824951 377.979309,371.824951 
	C382.831635,344.315796 387.644775,317.028961 392.529419,289.336670 
	C371.641205,289.336670 351.240814,289.336670 330.226593,289.336670 
	C325.449310,316.647858 320.646942,344.102356 315.794678,371.842194 
	C296.560455,371.842194 277.490540,371.842194 257.979950,371.842194 
	C260.477997,357.532745 262.909058,343.481628 265.386322,329.438629 
	C275.908203,269.792389 286.460175,210.151428 296.956116,150.500595 
	C298.460724,141.949539 298.346680,141.929398 306.818298,141.929367 
	C321.312225,141.929306 335.806183,141.929367 350.300110,141.929382 
	C352.097809,141.929398 353.895508,141.929382 356.072876,141.929382 
	C354.835876,149.030197 353.697937,155.562637 352.456146,162.514008 
z"/>
<path fill="#DFC5A7" opacity="1.000000" stroke="none" 
	d="
M54.943825,325.912415 
	C76.072334,266.633850 97.158913,207.755829 118.002556,148.791931 
	C119.803757,143.696579 121.854805,141.680099 127.664093,141.751923 
	C158.314728,142.130814 188.972519,141.929550 219.627838,141.929565 
	C221.591522,141.929565 223.555222,141.929565 226.487183,141.929565 
	C226.487183,218.741837 226.487183,295.111603 226.487183,371.825592 
	C207.124252,371.825592 187.251190,371.825592 166.736313,371.825592 
	C167.331558,355.241730 167.919083,338.872437 168.515808,322.247253 
	C150.608017,322.247253 133.163452,322.247253 115.127136,322.247253 
	C112.809914,329.587738 110.404427,337.136932 108.045296,344.700531 
	C105.569336,352.638702 103.259468,360.632202 100.577980,368.499603 
	C100.078186,369.966003 98.176254,371.986725 96.900871,372.001678 
	C77.762703,372.226227 58.621098,372.157135 38.439575,372.157135 
	C44.057011,356.444397 49.447216,341.367279 54.943825,325.912415 
M148.207001,214.691620 
	C141.645081,235.911301 135.083160,257.130981 128.383194,278.797119 
	C142.630783,278.797119 156.183365,278.797119 170.268112,278.797119 
	C171.421112,251.840897 172.566757,225.056137 173.714081,198.232498 
	C172.338089,198.079926 171.683456,197.931549 171.032730,197.947052 
	C165.241470,198.084808 158.180191,196.303253 154.045181,199.000153 
	C150.465103,201.335098 150.205414,208.761032 148.207001,214.691620 
z"/>
<path fill="#3D4937" opacity="1.000000" stroke="none" 
	d="
M148.342529,214.314148 
	C150.205414,208.761032 150.465103,201.335098 154.045181,199.000153 
	C158.180191,196.303253 165.241470,198.084808 171.032730,197.947052 
	C171.683456,197.931549 172.338089,198.079926 173.714081,198.232498 
	C172.566757,225.056137 171.421112,251.840897 170.268112,278.797119 
	C156.183365,278.797119 142.630783,278.797119 128.383194,278.797119 
	C135.083160,257.130981 141.645081,235.911301 148.342529,214.314148 
z"/>
</svg>